<?xml version="1.0" encoding="UTF-8" standalone="no"?>
<!-- Created with Inkscape (http://www.inkscape.org/) -->

<svg
   xmlns:dc="http://purl.org/dc/elements/1.1/"
   xmlns:cc="http://creativecommons.org/ns#"
   xmlns:rdf="http://www.w3.org/1999/02/22-rdf-syntax-ns#"
   xmlns:svg="http://www.w3.org/2000/svg"
   xmlns="http://www.w3.org/2000/svg"
   xmlns:sodipodi="http://sodipodi.sourceforge.net/DTD/sodipodi-0.dtd"
   xmlns:inkscape="http://www.inkscape.org/namespaces/inkscape"
   width="1024"
   height="1024"
   id="svg2"
   version="1.1"
   inkscape:version="0.48.4 r9939"
   sodipodi:docname="civicrm-data-integration.svg"
   inkscape:export-filename="/home/ccapote/U/Proyectos/CRM/Fuentes/Desarrollos/2014.05 - CiviCRM Data Integration/res/civicrm-data-integration.png"
   inkscape:export-xdpi="5.625"
   inkscape:export-ydpi="5.625">
  <defs
     id="defs4">
    <filter
       inkscape:collect="always"
       id="filter4045"
       x="-0.16185462"
       width="1.3237092"
       y="-0.14643881"
       height="1.2928776"
       color-interpolation-filters="sRGB">
      <feGaussianBlur
         inkscape:collect="always"
         stdDeviation="35.962076"
         id="feGaussianBlur4047" />
    </filter>
    <filter
       inkscape:collect="always"
       id="filter4049"
       x="-0.16185462"
       width="1.3237092"
       y="-0.14643881"
       height="1.2928776"
       color-interpolation-filters="sRGB">
      <feGaussianBlur
         inkscape:collect="always"
         stdDeviation="35.962076"
         id="feGaussianBlur4051" />
    </filter>
    <filter
       inkscape:collect="always"
       id="filter4053"
       x="-0.16369651"
       width="1.3273931"
       y="-0.15935192"
       height="1.3187038"
       color-interpolation-filters="sRGB">
      <feGaussianBlur
         inkscape:collect="always"
         stdDeviation="35.962076"
         id="feGaussianBlur4055" />
    </filter>
  </defs>
  <sodipodi:namedview
     id="base"
     pagecolor="#ffffff"
     bordercolor="#666666"
     borderopacity="1.0"
     inkscape:pageopacity="0.0"
     inkscape:pageshadow="2"
     inkscape:zoom="0.49497475"
     inkscape:cx="560.57674"
     inkscape:cy="749.48478"
     inkscape:document-units="px"
     inkscape:current-layer="layer1"
     showgrid="false"
     showguides="true"
     inkscape:guide-bbox="true"
     inkscape:window-width="1140"
     inkscape:window-height="914"
     inkscape:window-x="687"
     inkscape:window-y="86"
     inkscape:window-maximized="0" />
  <metadata
     id="metadata7">
    <rdf:RDF>
      <cc:Work
         rdf:about="">
        <dc:format>image/svg+xml</dc:format>
        <dc:type
           rdf:resource="http://purl.org/dc/dcmitype/StillImage" />
        <dc:title></dc:title>
      </cc:Work>
    </rdf:RDF>
  </metadata>
  <g
     inkscape:label="Layer 1"
     inkscape:groupmode="layer"
     id="layer1"
     transform="translate(0,-28.362183)">
    <path
       inkscape:connector-curvature="0"
       style="font-size:medium;font-style:normal;font-variant:normal;font-weight:normal;font-stretch:normal;text-indent:0;text-align:start;text-decoration:none;line-height:normal;letter-spacing:normal;word-spacing:normal;text-transform:none;direction:ltr;block-progression:tb;writing-mode:lr-tb;text-anchor:start;baseline-shift:baseline;color:#000000;fill:none;stroke:none;stroke-width:3.5;marker:none;visibility:visible;display:inline;overflow:visible;enable-background:accumulate;font-family:Sans;-inkscape-font-specification:Sans"
       d="m 816.64286,530.90788 0,69.78125 c -107.84389,0.27717 -195.1875,90.17865 -195.1875,201.03125 0,111.02391 87.61365,201.03122 195.6875,201.03122 108.07384,0 195.71874,-90.00731 195.71874,-201.03122 0,-94.82481 -63.94608,-174.29016 -149.93749,-195.46875 l 37.21875,-37.21875 c 0.6442,-0.64752 0.6442,-1.82123 0,-2.46875 l -30.21875,-30.21875 c 120.30878,25.11275 210.84379,134.35962 210.84379,265.375 0,149.59035 -118.00952,270.81252 -263.62504,270.81252 -145.61552,0 -263.625,-121.22217 -263.625,-270.81252 0,-149.41883 117.73979,-270.53496 263.125,-270.8125 z"
       id="path3047-5" />
    <flowRoot
       xml:space="preserve"
       id="flowRoot3949"
       style="font-size:40px;font-style:normal;font-weight:normal;line-height:125%;letter-spacing:0px;word-spacing:0px;fill:#000000;fill-opacity:1;stroke:none;font-family:Sans"><flowRegion
         id="flowRegion3951"><rect
           id="rect3953"
           width="109.09647"
           height="113.13708"
           x="208.09143"
           y="729.11334" /></flowRegion><flowPara
         id="flowPara3955"></flowPara></flowRoot>    <g
       id="g4057"
       transform="matrix(1.1767927,0,0,1.1767927,94.776501,10.121964)">
      <path
         id="path3051-2-9"
         d="m 352.77991,897.49842 c 0.3865,-0.046 0.75594,-0.2249 1.03125,-0.5 l 0.71875,-0.7188 c 0.33364,-0.3238 0.52967,-0.7851 0.53125,-1.25 l 0,-39.0937 c 147.01015,-0.2783 266.125,-122.8182 266.125,-273.90628 0,-151.25997 -119.38422,-273.90625 -266.625,-273.90625 -147.24077,0 -266.625,122.64628 -266.625,273.90625 0,134.10438 93.85498,245.68848 217.75,269.28128 l 45.65625,45.6875 c 0.37143,0.3708 0.91613,0.5602 1.4375,0.5 z m 2.28125,-116.6875 0,-43.9375 c -0.01,-0.4545 -0.20494,-0.9023 -0.53125,-1.2188 l -0.71875,-0.7187 c -0.64752,-0.6442 -1.82123,-0.6442 -2.46875,0 l -40.71875,40.7187 c -85.7142,-20.432 -149.5625,-99.34828 -149.5625,-193.62498 0,-109.79842 86.61908,-198.78125 193.5,-198.78125 106.88093,0 193.5,88.98283 193.5,198.78125 0,109.62688 -86.34942,198.50378 -193,198.78128 z"
         style="font-size:medium;font-style:normal;font-variant:normal;font-weight:normal;font-stretch:normal;text-indent:0;text-align:start;text-decoration:none;line-height:normal;letter-spacing:normal;word-spacing:normal;text-transform:none;direction:ltr;block-progression:tb;writing-mode:lr-tb;text-anchor:start;baseline-shift:baseline;opacity:0.58565734;color:#000000;fill:#50d854;fill-opacity:1;stroke:none;stroke-width:3.5;marker:none;visibility:visible;display:inline;overflow:visible;filter:url(#filter4045);enable-background:accumulate;font-family:Sans;-inkscape-font-specification:Sans"
         inkscape:connector-curvature="0" />
      <path
         inkscape:connector-curvature="0"
         id="path3051-4"
         d="m 408.19495,79.895743 c -0.3865,0.0458 -0.75594,0.2249 -1.03125,0.5 l -0.71875,0.71875 c -0.33364,0.32381 -0.52967,0.78506 -0.53125,1.25 l 0,39.093747 c -147.01015,0.27825 -266.125,122.81813 -266.125,273.90625 0,151.25997 119.38422,273.90625 266.625,273.90625 147.24077,0 266.625,-122.64628 266.625,-273.90625 0,-134.10439 -93.85498,-245.68846 -217.75,-269.28125 L 409.63245,80.395743 c -0.37143,-0.37081 -0.91613,-0.56027 -1.4375,-0.5 z m -2.28125,116.687497 0,43.9375 c 0.01,0.45448 0.20494,0.90226 0.53125,1.21875 l 0.71875,0.71875 c 0.64752,0.6442 1.82123,0.6442 2.46875,0 l 40.71875,-40.71875 c 85.7142,20.43201 149.5625,99.34829 149.5625,193.625 0,109.79842 -86.61908,198.78125 -193.5,198.78125 -106.88093,0 -193.5,-88.98283 -193.5,-198.78125 0,-109.62689 86.34942,-198.50382 193,-198.78125 z"
         style="font-size:medium;font-style:normal;font-variant:normal;font-weight:normal;font-stretch:normal;text-indent:0;text-align:start;text-decoration:none;line-height:normal;letter-spacing:normal;word-spacing:normal;text-transform:none;direction:ltr;block-progression:tb;writing-mode:lr-tb;text-anchor:start;baseline-shift:baseline;opacity:0.58565734;color:#000000;fill:#005b86;fill-opacity:1;stroke:none;stroke-width:3.5;marker:none;visibility:visible;display:inline;overflow:visible;filter:url(#filter4049);enable-background:accumulate;font-family:Sans;-inkscape-font-specification:Sans" />
      <path
         id="path3051-2"
         d="m 297.58496,862.85264 c 0.3865,-0.0458 0.75594,-0.22489 1.03125,-0.5 l 0.71875,-0.71875 c 0.33364,-0.32381 0.52967,-0.78506 0.53125,-1.25 l 0,-39.09374 c 147.01015,-0.27826 266.125,-122.81814 266.125,-273.90625 0,-151.25997 -119.38422,-273.90625 -266.625,-273.90625 -147.24077,0 -266.624996,122.64628 -266.624996,273.90625 0,134.10438 93.854976,245.68846 217.749996,269.28125 l 45.65625,45.68749 c 0.37143,0.37082 0.91613,0.56027 1.4375,0.5 z m 2.28125,-116.6875 0,-43.9375 c -0.01,-0.45448 -0.20494,-0.90226 -0.53125,-1.21875 l -0.71875,-0.71875 c -0.64752,-0.6442 -1.82123,-0.6442 -2.46875,0 l -40.71875,40.71875 c -85.7142,-20.43201 -149.5625,-99.34829 -149.5625,-193.62499 0,-109.79842 86.61908,-198.78125 193.5,-198.78125 106.88093,0 193.5,88.98283 193.5,198.78125 0,109.62688 -86.34942,198.50381 -193,198.78124 z"
         style="font-size:medium;font-style:normal;font-variant:normal;font-weight:normal;font-stretch:normal;text-indent:0;text-align:start;text-decoration:none;line-height:normal;letter-spacing:normal;word-spacing:normal;text-transform:none;direction:ltr;block-progression:tb;writing-mode:lr-tb;text-anchor:start;baseline-shift:baseline;color:#000000;fill:#50d854;fill-opacity:1;stroke:none;stroke-width:3.5;marker:none;visibility:visible;display:inline;overflow:visible;enable-background:accumulate;font-family:Sans;-inkscape-font-specification:Sans"
         inkscape:connector-curvature="0" />
      <path
         inkscape:connector-curvature="0"
         id="path3051"
         d="m 353,45.25 c -0.3865,0.0458 -0.75594,0.2249 -1.03125,0.5 L 351.25,46.46875 c -0.33364,0.32381 -0.52967,0.78506 -0.53125,1.25 l 0,39.09375 c -147.01015,0.27825 -266.125,122.81813 -266.125,273.90625 0,151.25997 119.38422,273.90625 266.625,273.90625 147.24077,0 266.625,-122.64628 266.625,-273.90625 0,-134.10439 -93.85498,-245.68846 -217.75,-269.28125 L 354.4375,45.75 C 354.06607,45.37919 353.52137,45.18973 353,45.25 z m -2.28125,116.6875 0,43.9375 c 0.01,0.45448 0.20494,0.90226 0.53125,1.21875 l 0.71875,0.71875 c 0.64752,0.6442 1.82123,0.6442 2.46875,0 l 40.71875,-40.71875 c 85.7142,20.43201 149.5625,99.34829 149.5625,193.625 0,109.79842 -86.61908,198.78125 -193.5,198.78125 -106.88093,0 -193.5,-88.98283 -193.5,-198.78125 0,-109.62689 86.34942,-198.50382 193,-198.78125 z"
         style="font-size:medium;font-style:normal;font-variant:normal;font-weight:normal;font-stretch:normal;text-indent:0;text-align:start;text-decoration:none;line-height:normal;letter-spacing:normal;word-spacing:normal;text-transform:none;direction:ltr;block-progression:tb;writing-mode:lr-tb;text-anchor:start;baseline-shift:baseline;color:#000000;fill:#005b86;fill-opacity:1;stroke:none;stroke-width:3.5;marker:none;visibility:visible;display:inline;overflow:visible;enable-background:accumulate;font-family:Sans;-inkscape-font-specification:Sans" />
      <path
         id="path3047"
         d="m 344.71875,91.90625 0,69.78125 c -107.84389,0.27717 -195.1875,90.17865 -195.1875,201.03125 0,111.02391 87.61365,201.03125 195.6875,201.03125 108.07384,0 195.71875,-90.00734 195.71875,-201.03125 C 540.9375,267.89394 476.99141,188.42859 391,167.25 l 37.21875,-37.21875 c 0.6442,-0.64752 0.6442,-1.82123 0,-2.46875 L 398,97.34375 c 120.30878,25.11275 210.84375,134.35962 210.84375,265.375 0,149.59035 -118.00948,270.8125 -263.625,270.8125 -145.61552,0 -263.625,-121.22215 -263.625,-270.8125 0,-149.41883 117.73979,-270.534961 263.125,-270.8125 z"
         style="font-size:medium;font-style:normal;font-variant:normal;font-weight:normal;font-stretch:normal;text-indent:0;text-align:start;text-decoration:none;line-height:normal;letter-spacing:normal;word-spacing:normal;text-transform:none;direction:ltr;block-progression:tb;writing-mode:lr-tb;text-anchor:start;baseline-shift:baseline;color:#000000;fill:none;stroke:none;stroke-width:3.5;marker:none;visibility:visible;display:inline;overflow:visible;enable-background:accumulate;font-family:Sans;-inkscape-font-specification:Sans"
         inkscape:connector-curvature="0" />
      <path
         id="path3047-2"
         d="m 612.04573,395.25257 0,69.78125 c -107.84389,0.27717 -195.1875,90.17865 -195.1875,201.03125 0,111.02391 87.61365,201.03125 195.6875,201.03125 108.07384,0 195.71875,-90.00734 195.71875,-201.03125 0,-94.82481 -63.94609,-174.29016 -149.9375,-195.46875 l 37.21875,-37.21875 c 0.6442,-0.64752 0.6442,-1.82123 0,-2.46875 l -30.21875,-30.21875 c 120.30878,25.11275 210.84375,134.35962 210.84375,265.375 0,149.59035 -118.00948,270.8125 -263.625,270.8125 -145.61552,0 -263.625,-121.22215 -263.625,-270.8125 0,-149.41883 117.73979,-270.53496 263.125,-270.8125 z"
         style="font-size:medium;font-style:normal;font-variant:normal;font-weight:normal;font-stretch:normal;text-indent:0;text-align:start;text-decoration:none;line-height:normal;letter-spacing:normal;word-spacing:normal;text-transform:none;direction:ltr;block-progression:tb;writing-mode:lr-tb;text-anchor:start;baseline-shift:baseline;color:#000000;fill:none;stroke:none;stroke-width:3.5;marker:none;visibility:visible;display:inline;overflow:visible;filter:url(#filter4053);enable-background:accumulate;font-family:Sans;-inkscape-font-specification:Sans"
         inkscape:connector-curvature="0" />
    </g>
  </g>
</svg>
